<svg xmlns="http://www.w3.org/2000/svg" xmlns:xlink="http://www.w3.org/1999/xlink" width="700" zoomAndPan="magnify" viewBox="0 0 375 374.999991" height="500" preserveAspectRatio="xMidYMid meet" version="1.0"><defs><g/><clipPath id="cd61e3cbd6"><path d="M 28 183 L 121.8125 183 L 121.8125 262.464844 L 28 262.464844 Z M 28 183 " clip-rule="nonzero"/></clipPath><clipPath id="2f2b7a761a"><path d="M 10.8125 151.464844 L 104 151.464844 L 104 231 L 10.8125 231 Z M 10.8125 151.464844 " clip-rule="nonzero"/></clipPath></defs><g clip-path="url(#cd61e3cbd6)"><path fill="#3498db" d="M 116.210938 183.285156 C 116.515625 183.910156 116.8125 184.589844 117.09375 185.257812 C 118.828125 189.359375 120.046875 193.609375 120.746094 197.96875 C 121.210938 200.863281 121.441406 203.808594 121.441406 206.785156 C 121.441406 214.246094 119.980469 221.492188 117.09375 228.316406 C 114.304688 234.902344 110.320312 240.820312 105.242188 245.898438 C 100.164062 250.972656 94.25 254.964844 87.664062 257.75 C 80.839844 260.636719 73.59375 262.101562 66.132812 262.101562 C 58.667969 262.101562 51.425781 260.648438 44.601562 257.761719 C 38.679688 255.257812 33.304688 251.816406 28.589844 247.4375 L 66.128906 247.4375 C 88.527344 247.4375 106.746094 229.183594 106.746094 206.789062 C 106.746094 203.761719 106.410156 200.796875 105.78125 197.9375 L 66.136719 197.9375 L 66.136719 197.964844 C 61.203125 197.96875 57.265625 201.964844 57.265625 206.839844 C 57.265625 211.71875 61.238281 215.71875 66.128906 215.71875 L 87.96875 215.71875 C 86.800781 218.578125 85.050781 221.21875 82.789062 223.484375 C 78.339844 227.929688 72.421875 230.351562 66.128906 230.351562 C 59.839844 230.351562 53.921875 227.90625 49.476562 223.464844 C 45.023438 219.019531 42.570312 213.105469 42.570312 206.8125 C 42.570312 200.519531 45.027344 194.605469 49.480469 190.160156 C 53.929688 185.71875 59.84375 183.28125 66.136719 183.28125 Z M 116.210938 183.285156 " fill-opacity="1" fill-rule="nonzero"/></g><g clip-path="url(#2f2b7a761a)"><path fill="#3498db" d="M 10.824219 206.785156 C 10.824219 199.324219 12.289062 192.074219 15.175781 185.25 C 17.960938 178.664062 21.949219 172.746094 27.023438 167.671875 C 32.101562 162.59375 38.015625 158.605469 44.601562 155.816406 C 51.425781 152.933594 58.671875 151.464844 66.136719 151.464844 C 73.597656 151.464844 80.84375 152.917969 87.667969 155.804688 C 93.585938 158.308594 98.964844 161.75 103.679688 166.128906 L 66.136719 166.128906 C 43.738281 166.128906 25.519531 184.378906 25.519531 206.777344 C 25.519531 215.554688 28.320312 223.671875 33.074219 230.375 L 16.085938 230.375 C 15.769531 229.660156 15.464844 229.015625 15.175781 228.328125 C 12.289062 221.5 10.824219 214.253906 10.824219 206.785156 Z M 10.824219 206.785156 " fill-opacity="1" fill-rule="nonzero"/></g><g fill="#000000" fill-opacity="1"><g transform="translate(130.34844, 230.40007)"><g><path d="M 37.125 -33.75 C 36.238281 -35.394531 34.960938 -36.648438 33.296875 -37.515625 C 31.628906 -38.378906 29.671875 -38.8125 27.421875 -38.8125 C 23.535156 -38.8125 20.421875 -37.535156 18.078125 -34.984375 C 15.734375 -32.429688 14.5625 -29.019531 14.5625 -24.75 C 14.5625 -20.207031 15.789062 -16.65625 18.25 -14.09375 C 20.707031 -11.539062 24.09375 -10.265625 28.40625 -10.265625 C 31.363281 -10.265625 33.859375 -11.015625 35.890625 -12.515625 C 37.929688 -14.015625 39.421875 -16.171875 40.359375 -18.984375 L 25.109375 -18.984375 L 25.109375 -27.84375 L 51.265625 -27.84375 L 51.265625 -16.671875 C 50.367188 -13.671875 48.851562 -10.878906 46.71875 -8.296875 C 44.59375 -5.722656 41.890625 -3.632812 38.609375 -2.03125 C 35.328125 -0.4375 31.625 0.359375 27.5 0.359375 C 22.625 0.359375 18.273438 -0.707031 14.453125 -2.84375 C 10.628906 -4.976562 7.648438 -7.941406 5.515625 -11.734375 C 3.390625 -15.535156 2.328125 -19.875 2.328125 -24.75 C 2.328125 -29.625 3.390625 -33.972656 5.515625 -37.796875 C 7.648438 -41.617188 10.613281 -44.59375 14.40625 -46.71875 C 18.207031 -48.851562 22.546875 -49.921875 27.421875 -49.921875 C 33.328125 -49.921875 38.304688 -48.488281 42.359375 -45.625 C 46.421875 -42.769531 49.109375 -38.8125 50.421875 -33.75 Z M 37.125 -33.75 "/></g></g></g><g fill="#000000" fill-opacity="1"><g transform="translate(183.90974, 230.40007)"><g><path d="M 16.390625 -32.703125 C 17.796875 -34.859375 19.550781 -36.554688 21.65625 -37.796875 C 23.769531 -39.035156 26.113281 -39.65625 28.6875 -39.65625 L 28.6875 -26.9375 L 25.390625 -26.9375 C 22.390625 -26.9375 20.140625 -26.289062 18.640625 -25 C 17.140625 -23.707031 16.390625 -21.445312 16.390625 -18.21875 L 16.390625 0 L 4.359375 0 L 4.359375 -39.234375 L 16.390625 -39.234375 Z M 16.390625 -32.703125 "/></g></g></g><g fill="#000000" fill-opacity="1"><g transform="translate(213.994043, 230.40007)"><g><path d="M 22.21875 0.5625 C 18.375 0.5625 14.914062 -0.253906 11.84375 -1.890625 C 8.78125 -3.535156 6.367188 -5.878906 4.609375 -8.921875 C 2.847656 -11.972656 1.96875 -15.539062 1.96875 -19.625 C 1.96875 -23.65625 2.859375 -27.203125 4.640625 -30.265625 C 6.421875 -33.335938 8.859375 -35.691406 11.953125 -37.328125 C 15.046875 -38.972656 18.515625 -39.796875 22.359375 -39.796875 C 26.203125 -39.796875 29.671875 -38.972656 32.765625 -37.328125 C 35.859375 -35.691406 38.296875 -33.335938 40.078125 -30.265625 C 41.859375 -27.203125 42.75 -23.65625 42.75 -19.625 C 42.75 -15.59375 41.847656 -12.039062 40.046875 -8.96875 C 38.242188 -5.894531 35.78125 -3.535156 32.65625 -1.890625 C 29.539062 -0.253906 26.0625 0.5625 22.21875 0.5625 Z M 22.21875 -9.84375 C 24.519531 -9.84375 26.476562 -10.6875 28.09375 -12.375 C 29.707031 -14.0625 30.515625 -16.476562 30.515625 -19.625 C 30.515625 -22.757812 29.726562 -25.171875 28.15625 -26.859375 C 26.59375 -28.546875 24.660156 -29.390625 22.359375 -29.390625 C 20.015625 -29.390625 18.066406 -28.554688 16.515625 -26.890625 C 14.972656 -25.234375 14.203125 -22.8125 14.203125 -19.625 C 14.203125 -16.476562 14.960938 -14.0625 16.484375 -12.375 C 18.015625 -10.6875 19.925781 -9.84375 22.21875 -9.84375 Z M 22.21875 -9.84375 "/></g></g></g><g fill="#000000" fill-opacity="1"><g transform="translate(258.769023, 230.40007)"><g><path d="M 22.015625 -11.25 L 30.515625 -39.234375 L 43.3125 -39.234375 L 29.390625 0 L 14.5625 0 L 0.640625 -39.234375 L 13.5 -39.234375 Z M 22.015625 -11.25 "/></g></g></g><g fill="#000000" fill-opacity="1"><g transform="translate(302.770824, 230.40007)"><g><path d="M 10.40625 -43.3125 C 8.300781 -43.3125 6.578125 -43.929688 5.234375 -45.171875 C 3.898438 -46.421875 3.234375 -47.957031 3.234375 -49.78125 C 3.234375 -51.65625 3.898438 -53.210938 5.234375 -54.453125 C 6.578125 -55.703125 8.300781 -56.328125 10.40625 -56.328125 C 12.46875 -56.328125 14.164062 -55.703125 15.5 -54.453125 C 16.84375 -53.210938 17.515625 -51.65625 17.515625 -49.78125 C 17.515625 -47.957031 16.84375 -46.421875 15.5 -45.171875 C 14.164062 -43.929688 12.46875 -43.3125 10.40625 -43.3125 Z M 16.390625 -39.234375 L 16.390625 0 L 4.359375 0 L 4.359375 -39.234375 Z M 16.390625 -39.234375 "/></g></g></g><g fill="#000000" fill-opacity="1"><g transform="translate(323.506511, 230.40007)"><g><path d="M 22.21875 0.5625 C 18.375 0.5625 14.914062 -0.253906 11.84375 -1.890625 C 8.78125 -3.535156 6.367188 -5.878906 4.609375 -8.921875 C 2.847656 -11.972656 1.96875 -15.539062 1.96875 -19.625 C 1.96875 -23.65625 2.859375 -27.203125 4.640625 -30.265625 C 6.421875 -33.335938 8.859375 -35.691406 11.953125 -37.328125 C 15.046875 -38.972656 18.515625 -39.796875 22.359375 -39.796875 C 26.203125 -39.796875 29.671875 -38.972656 32.765625 -37.328125 C 35.859375 -35.691406 38.296875 -33.335938 40.078125 -30.265625 C 41.859375 -27.203125 42.75 -23.65625 42.75 -19.625 C 42.75 -15.59375 41.847656 -12.039062 40.046875 -8.96875 C 38.242188 -5.894531 35.78125 -3.535156 32.65625 -1.890625 C 29.539062 -0.253906 26.0625 0.5625 22.21875 0.5625 Z M 22.21875 -9.84375 C 24.519531 -9.84375 26.476562 -10.6875 28.09375 -12.375 C 29.707031 -14.0625 30.515625 -16.476562 30.515625 -19.625 C 30.515625 -22.757812 29.726562 -25.171875 28.15625 -26.859375 C 26.59375 -28.546875 24.660156 -29.390625 22.359375 -29.390625 C 20.015625 -29.390625 18.066406 -28.554688 16.515625 -26.890625 C 14.972656 -25.234375 14.203125 -22.8125 14.203125 -19.625 C 14.203125 -16.476562 14.960938 -14.0625 16.484375 -12.375 C 18.015625 -10.6875 19.925781 -9.84375 22.21875 -9.84375 Z M 22.21875 -9.84375 "/></g></g></g></svg>